<?xml version="1.0" encoding="UTF-8" standalone="no"?>
<!-- Created with Inkscape (http://www.inkscape.org/) -->

<svg
   xmlns:osb="http://www.openswatchbook.org/uri/2009/osb"
   xmlns:dc="http://purl.org/dc/elements/1.1/"
   xmlns:cc="http://creativecommons.org/ns#"
   xmlns:rdf="http://www.w3.org/1999/02/22-rdf-syntax-ns#"
   xmlns:svg="http://www.w3.org/2000/svg"
   xmlns="http://www.w3.org/2000/svg"
   xmlns:sodipodi="http://sodipodi.sourceforge.net/DTD/sodipodi-0.dtd"
   xmlns:inkscape="http://www.inkscape.org/namespaces/inkscape"
   width="514.21997"
   height="471.07999"
   id="svg2"
   version="1.1"
   inkscape:version="0.48.5 r10040"
   sodipodi:docname="EsmeLogo.png">
  <defs
     id="defs4">
    <linearGradient
       id="linearGradient5317">
      <stop
         style="stop-color:#ef6804;stop-opacity:0.98958331;"
         offset="0"
         id="stop5319" />
      <stop
         id="stop5337"
         offset="0.03125"
         style="stop-color:#e76103;stop-opacity:0.95686275;" />
      <stop
         id="stop5335"
         offset="0.0625"
         style="stop-color:#e05e03;stop-opacity:0.9254902;" />
      <stop
         id="stop5333"
         offset="0.125"
         style="stop-color:#d15803;stop-opacity:0.8627451;" />
      <stop
         id="stop5331"
         offset="0.25"
         style="stop-color:#b34b03;stop-opacity:0.74117647;" />
      <stop
         id="stop5329"
         offset="0.5"
         style="stop-color:#773202;stop-opacity:0.49411765;" />
      <stop
         style="stop-color:#000000;stop-opacity:0;"
         offset="1"
         id="stop5321" />
    </linearGradient>
    <linearGradient
       id="linearGradient5285"
       osb:paint="solid">
      <stop
         style="stop-color:#000000;stop-opacity:1;"
         offset="0"
         id="stop5287" />
    </linearGradient>
  </defs>
  <sodipodi:namedview
     id="base"
     pagecolor="#ffffff"
     bordercolor="#666666"
     borderopacity="1.0"
     inkscape:pageopacity="0.0"
     inkscape:pageshadow="2"
     inkscape:zoom="0.90509668"
     inkscape:cx="165.55325"
     inkscape:cy="182.94173"
     inkscape:document-units="px"
     inkscape:current-layer="layer1"
     showgrid="false"
     inkscape:window-width="1366"
     inkscape:window-height="706"
     inkscape:window-x="-8"
     inkscape:window-y="-8"
     inkscape:window-maximized="1"
     inkscape:snap-global="true"
     inkscape:snap-to-guides="false"
     inkscape:snap-grids="false"
     fit-margin-top="0"
     fit-margin-left="0"
     fit-margin-right="0"
     fit-margin-bottom="0">
    <inkscape:grid
       type="xygrid"
       id="grid2985"
       empspacing="5"
       visible="true"
       enabled="true"
       snapvisiblegridlinesonly="true"
       originx="-125.71537px"
       originy="-223.96172px" />
  </sodipodi:namedview>
  <metadata
     id="metadata7">
    <rdf:RDF>
      <cc:Work
         rdf:about="">
        <dc:format>image/svg+xml</dc:format>
        <dc:type
           rdf:resource="http://purl.org/dc/dcmitype/StillImage" />
        <dc:title></dc:title>
      </cc:Work>
    </rdf:RDF>
  </metadata>
  <g
     inkscape:label="Layer 1"
     inkscape:groupmode="layer"
     id="layer1"
     transform="translate(-125.71537,-357.32007)">
    <path
       style="opacity:0.78761058;fill:#a02c2c;fill-opacity:1;fill-rule:nonzero;stroke:#000000;stroke-width:0;stroke-miterlimit:4;stroke-opacity:1;stroke-dasharray:none"
       id="path5243"
       d="m 345.69807,477.9774 c -4.70558,-1.61685 -8.98054,-3.9072 -13.33174,-6.04839 -4.93496,-2.62867 -10.4296,-4.41613 -15.62551,-6.66724 -5.30287,-2.26156 -10.5734,-4.55599 -16.20126,-6.27237 -6.46208,-1.89838 -13.15607,-3.20398 -19.97577,-3.98748 -5.57185,-0.60595 -11.30985,-0.28611 -16.55189,1.53316 -5.02978,2.01894 -9.40093,4.92858 -13.71521,7.8182 -2.45646,2.02267 -5.76696,3.44138 -8.09629,5.56754 -1.21337,1.10753 -2.07038,2.44176 -3.13702,3.64463 -6.14633,8.36585 -15.65585,30.3395 3.01982,-8.91361 -2.18654,7.23798 -0.46478,14.56269 1.63412,21.5995 2.66855,7.56268 6.42639,14.81599 10.50768,21.91516 2.92187,5.06491 6.17974,9.94039 9.98191,14.58985 3.90584,4.55843 8.32491,8.79247 12.66177,13.07356 3.47366,3.41434 6.99217,6.79765 10.51216,10.18007 2.38035,2.57102 5.05051,4.81669 8.12578,6.82044 12.99748,6.18495 7.21099,-1.41529 -6.85749,24.48068 -1.85745,-2.13036 -5.03421,-2.68873 -7.98283,-3.27372 -3.81676,-0.46485 -7.22132,-0.58448 -10.85209,0.66314 -3.72632,1.87195 -7.78091,3.20069 -11.49729,5.08683 -2.24602,1.52316 -5.2284,2.57543 -7.21415,4.35691 -0.7511,0.6739 -2.14646,2.87282 -2.61648,3.57113 -1.63843,2.09729 -2.81105,4.39365 -4.0235,6.66053 -0.45754,0.85538 -1.75673,3.44511 -1.35897,2.57087 13.63479,-29.96895 11.23814,-24.5191 7.67151,-16.2962 -3.90348,13.52689 -10.09475,25.43178 -16.32542,38.72408 -4.66748,10.16663 5.76942,-12.57239 8.88782,-19.17558 0.23687,-0.50157 -0.39959,1.0249 -0.53923,1.54875 -0.46451,1.74265 -0.49493,3.55163 -0.60651,5.3184 -0.73456,3.33784 -0.24616,6.54357 0.23667,9.83907 0.31674,3.40529 2.21515,6.32738 4.10886,9.26418 1.32819,2.70368 3.07827,5.2055 5.09619,7.59188 2.28295,2.59314 4.94401,4.92591 6.91041,7.69685 1.93961,2.95005 4.26227,5.70204 6.71216,8.37642 2.46841,2.45599 4.68535,5.12424 7.50191,7.32731 2.17285,1.78637 4.76808,2.73475 7.65352,3.48573 3.39755,0.96229 6.48799,2.60348 10.01671,3.22407 4.73943,0.79478 9.62852,0.83001 14.46718,0.93421 5.86876,0.39885 11.62688,-0.21517 17.39676,-1.11024 4.50565,-0.77361 9.10318,-1.02748 13.61727,-1.7409 3.80961,-0.83184 7.50083,-1.90924 11.26676,-2.85687 3.69223,-0.91423 7.1495,-2.03597 10.42494,-3.73836 4.65518,-2.62875 8.99977,-5.60485 13.3681,-8.53955 6.40086,-4.36864 12.84982,-8.68983 19.2602,-13.04898 7.80177,-4.88783 14.58861,-10.64383 21.16008,-16.57951 5.83551,-4.77549 10.21512,-10.50405 15.33138,-15.76187 3.57604,-4.69046 6.63222,-9.62476 10.05083,-14.38638 1.51103,-3.46313 4.33952,-6.45067 5.70136,-9.94307 -3.28979,7.09921 -6.57953,14.19844 -9.86934,21.29764 0,0 14.67435,-21.60405 14.67435,-21.60405 l 0,0 c -3.656,8.12589 -7.31204,16.2518 -10.96808,24.37768 -1.98707,3.23494 -4.00012,6.46022 -6.0353,9.67483 -3.27356,4.83427 -6.57749,9.69572 -10.47017,14.22157 -5.02497,5.22855 -9.63817,10.73519 -15.45413,15.43105 -6.68164,5.91068 -13.74354,11.48511 -21.52351,16.44112 -6.47037,4.46483 -12.88721,8.98141 -19.39572,13.40942 -4.48039,3.04687 -8.96323,6.12086 -13.89888,8.66956 -3.54436,1.61039 -7.30743,2.70161 -11.17276,3.66223 -3.86502,0.91487 -7.63459,2.11538 -11.59704,2.72563 -4.51083,0.55951 -9.05257,0.903 -13.5393,1.61253 -5.94933,0.83636 -11.94446,1.16466 -17.95851,0.93359 -5.05302,-0.0783 -10.17064,-0.0683 -15.11435,-0.92841 -3.58495,-0.71593 -6.84506,-2.12684 -10.29491,-3.17231 -3.27785,-0.85421 -6.28364,-1.95797 -8.80481,-3.91733 -3.07243,-2.19063 -5.35607,-5.00567 -7.96979,-7.54829 -2.55194,-2.71192 -5.02035,-5.48328 -7.07092,-8.47557 -1.89523,-2.7401 -4.13554,-5.18549 -6.64411,-7.58882 -2.19809,-2.42245 -4.31857,-4.91661 -5.61316,-7.77278 -1.52903,-3.22686 -4.39295,-6.01633 -4.88318,-9.59833 -0.60042,-3.34728 -1.68498,-6.67733 -0.66463,-10.07897 0.49423,-12.65805 2.94012,-19.17234 12.46268,-33.3855 -18.60808,41.05251 -6.68295,16.39976 -4.41706,6.30394 5.31207,-12.88174 10.26648,-26.1126 18.87687,-37.86353 2.96318,-3.3643 6.90508,-5.71993 11.26942,-7.80607 3.91694,-1.79781 8.00994,-3.35903 12.05641,-4.93646 4.18408,-1.02103 8.29387,-0.97571 12.54303,-0.33572 3.64495,0.7291 7.26079,1.6019 10.03585,3.75931 -11.5459,25.38483 -2.89908,27.46566 -17.06365,21.06526 -3.23821,-2.11302 -6.18925,-4.34851 -8.59362,-7.13936 -3.47861,-3.44002 -6.97124,-6.87031 -10.46902,-10.29719 -4.40486,-4.34698 -8.67715,-8.78727 -12.78783,-13.3233 -4.11417,-4.62843 -7.63506,-9.51173 -10.44195,-14.77263 -4.01332,-7.2832 -7.74072,-14.68811 -10.83855,-22.27601 -2.46609,-6.95617 -4.52187,-14.48925 -3.0723,-21.78111 5.19941,-12.04109 9.07051,-25.41389 18.16486,-36.25177 3.39524,-3.57756 7.67044,-6.33333 12.00087,-9.13687 4.56827,-2.90243 9.22571,-5.80642 14.62834,-7.58295 5.834,-1.57473 11.90007,-1.79915 17.92305,-1.03259 7.00416,0.86711 13.89351,2.22039 20.58606,4.07082 5.76235,1.71352 11.11865,4.09142 16.58523,6.31724 5.25778,2.2225 10.67134,4.21313 15.70564,6.75729 4.41017,1.97762 8.53854,4.45071 13.4094,5.66147 0,0 -11.07001,23.09055 -11.07001,23.09055 z"
       inkscape:connector-curvature="0" />
    <path
       style="opacity:0.78761058;fill:#a02c2c;fill-opacity:0.99470903;fill-rule:nonzero;stroke:#000000;stroke-width:0;stroke-miterlimit:4;stroke-opacity:1;stroke-dasharray:none"
       id="path5313"
       d="m 322.02658,585.8558 c -25.85777,27.96638 -11.98852,11.51781 -5.89569,5.19053 3.60072,-3.6175 6.64314,-7.7039 9.59322,-11.84737 2.5499,-3.23969 4.86414,-6.59797 6.95509,-10.14306 2.17036,-3.21846 4.08558,-6.53733 5.68632,-10.06526 1.41953,-2.66359 2.57175,-5.44821 3.90311,-8.15384 1.36577,-2.769 2.03535,-5.78477 2.87763,-8.73184 0.93297,-2.94587 1.35302,-6.0081 1.68426,-9.06747 0.36558,-2.76362 1.08105,-5.46376 1.50058,-8.21734 1.11907,-8.48034 9.82899,-24.22348 18.4924,-17.64804 2.24082,2.03167 3.14111,4.96536 4.72002,7.45899 1.75411,2.66892 3.33224,5.35807 5.53472,7.6838 2.10193,2.3072 3.60719,5.0835 5.01078,7.84659 1.59245,3.62866 3.32044,7.19536 4.89148,10.83362 1.45365,3.60834 2.67929,7.30022 3.82863,11.01356 0.89492,2.99301 1.9361,5.93256 2.13071,9.06411 -0.9201,10.43245 -13.73071,18.92765 -19.39631,24.66984 -2.89347,2.03861 -6.33832,2.90042 -9.68976,3.87486 -3.63209,1.03818 -7.28234,2.01147 -10.92224,3.02203 -3.27495,0.68349 -6.49311,0.34666 -9.73796,-0.22759 -2.35053,-0.75227 -4.6457,-1.60105 -6.55438,-3.18835 -1.79138,-1.84684 -2.93028,-4.03918 -1.83737,-6.51139 13.13701,-14.45029 11.24037,-14.51328 23.32035,-17.96887 2.85546,-0.18488 5.67528,-0.474 8.48347,-1.02653 3.10256,-0.654 6.15288,-1.52224 9.21344,-2.34282 3.74585,-0.54652 6.42525,-2.6835 9.30717,-4.91166 5.92599,-6.2994 -1.96341,2.10953 -12.33067,12.37413 -0.40606,0.40206 0.739,-0.87184 1.08403,-1.32683 1.14565,-1.51068 2.16424,-3.1285 3.19885,-4.71461 2.28771,-3.39731 4.16769,-7.02952 5.82196,-10.76546 1.77013,-4.18402 3.77941,-8.2607 5.7719,-12.34274 1.79253,-3.77462 4.19379,-7.21137 6.20831,-10.85919 4.26054,-8.84501 13.01258,-14.41768 19.60261,-21.5021 0.31316,-0.26745 1.22735,-1.09658 0.93949,-0.80235 -4.65166,4.75472 -18.61183,19.01237 -14.03414,14.18717 6.39809,-6.74404 11.91026,-13.94775 19.71895,-18.78677 6.5778,-5.18447 18.51252,-18.16766 -7.56197,8.31254 1.73712,-1.92926 2.95175,-4.23308 4.41411,-6.36072 6.99168,6.97329 10.56844,-17.22224 19.32564,-17.59783 1.16526,-0.0501 1.46489,0.25566 2.47276,0.74948 2.28442,1.72951 3.15256,4.45668 4.01244,7.06276 0.85693,2.78224 1.60948,5.59486 2.38306,8.40074 0.71311,3.07112 0.78958,6.21398 0.64017,9.34623 -0.2871,3.37693 -0.31545,6.803 -0.93468,10.14039 -0.57144,2.56134 -1.24205,5.10305 -1.70042,7.68733 -0.55629,3.25263 -1.09905,6.50321 -1.51234,9.777 -0.47857,3.11785 -0.80874,6.22878 -0.92631,9.37872 -0.22007,2.31686 -0.23156,4.63945 -0.37257,6.96069 0.0129,0.19634 0.18726,0.45783 0.0397,0.58891 -9.582,8.51606 -17.12542,21.38421 -17.66927,9.17573 0.34342,-2.58766 1.08887,-5.10548 1.67531,-7.64633 0.63185,-2.84153 1.24679,-5.67193 1.70702,-8.54798 0.28392,-3.05358 1.1562,-5.93607 2.13279,-8.82345 1.01023,-2.93032 1.70753,-5.95134 2.37079,-8.97376 0.25822,-2.7311 1.5288,-5.1165 2.45943,-7.6394 0.78765,-2.06971 1.7358,-4.04579 2.8739,-5.94558 0.95022,-2.1026 2.56447,-3.78118 3.84706,-5.6733 5.21711,-7.67407 11.85858,-12.99409 18.77576,-19.97504 0.28766,-0.26935 1.13911,-1.089 0.86293,-0.80806 -30.00507,30.52484 -5.35712,4.63486 4.97391,-4.70885 2.59539,-1.69857 5.53542,-2.7225 8.46925,-3.67159 3.20967,-0.66079 5.16657,1.25827 6.6474,3.82626 1.26969,2.70721 2.08724,5.60393 2.69736,8.52105 0.44074,3.42432 0.49085,6.92153 0.13357,10.35527 -0.16849,1.56926 -0.56572,3.10111 -0.76381,4.66569 -0.042,0.33246 0.16205,1.25026 -0.0654,1.00314 -0.579,-0.62876 -1.13004,-1.2824 -1.69504,-1.92361 -24.07259,28.91186 -15.11568,15.70175 -10.2949,8.2765 1.4174,-2.11879 2.67829,-4.33437 4.04374,-6.48403 0.89152,-1.91098 1.61129,-3.90646 2.38353,-5.87204 0.91333,-2.1161 2.0124,-4.16499 3.21774,-6.13173 1.0958,-2.14624 2.44113,-4.13929 3.77184,-6.14632 1.58187,-2.43666 3.6511,-4.50627 5.55599,-6.68945 6.31173,-7.89071 12.58738,-16.16968 22.04634,-19.80659 3.01471,-1.33643 5.30656,-0.23871 7.19618,2.2009 1.56554,2.83869 2.41502,5.99489 3.31171,9.0886 0.81456,2.8772 1.60534,5.76095 2.40665,8.6418 0.77369,2.77987 1.55568,5.55742 2.33768,8.33496 0.83885,3.16932 1.75247,6.31841 2.65314,9.47072 0.95392,3.53395 1.94085,7.05865 2.95366,10.57633 0.87614,3.02566 1.7438,6.0537 2.60545,9.08347 0.90575,2.37819 0.94558,5.22671 2.51798,7.29929 1.76624,0.9597 4.03662,0.12612 5.86876,-0.31269 2.77142,-0.72014 5.51781,-1.53172 8.26974,-2.32157 2.79719,-0.80159 5.59872,-1.58807 8.40072,-2.37291 2.46709,-0.6941 4.77651,-2.07242 6.55727,-3.90575 -0.52259,0.56181 3.04885,-2.76802 2.3285,-2.03217 -29.20854,29.83678 -4.23488,3.99697 4.53608,-4.61597 -25.08197,26.22341 -13.72896,14.44453 -8.67503,7.85957 1.8248,-2.58274 3.28858,-5.37829 5.01785,-8.02356 2.0049,-2.61474 3.0478,-5.72613 4.43153,-8.66302 1.2434,-1.95419 2.26287,-3.982 3.24404,-6.068 1.60543,-2.10778 2.33494,-4.62101 3.20037,-7.07613 0.97167,-2.65147 0.80653,-5.37094 0.36237,-8.09916 -0.54917,-2.79564 -1.35454,-5.53295 -2.13431,-8.27133 -0.7697,-2.74453 -1.46379,-5.49208 -2.65388,-8.08998 -1.14929,-2.29693 -3.26906,-3.59694 -5.10449,-5.26166 -1.74285,-1.48783 -3.48137,-2.70375 -5.76581,-3.13109 -2.62682,-0.2034 -5.2017,0.48607 -7.72398,1.12537 -3.63372,0.59704 -5.79595,3.36157 -8.23336,5.7994 28.57813,-26.75531 14.6839,-17.07081 11.73164,-11.02737 -0.83766,1.71469 -1.2802,3.59438 -1.72171,5.43525 -0.73065,3.57946 -1.49072,7.16584 -1.6457,10.82203 0.0815,3.65014 1.00532,7.20542 1.93366,10.71615 0.79687,2.9069 1.64487,5.79958 2.47695,8.69663 0.90965,2.64039 2.78896,4.51803 4.99112,6.13231 3.16053,2.69233 7.1087,4.10035 10.99923,5.39631 3.06052,1.11592 6.25971,1.72358 9.29233,2.91209 2.73768,1.10816 5.44498,1.65028 8.39033,1.47396 3.15113,-0.37763 6.21315,-1.26464 9.2624,-2.11095 1.45692,-0.4796 3.03289,-0.64591 4.33889,-1.51407 4.88409,-3.24681 21.80785,-21.56108 -12.00854,12.30334 5.24036,-5.31389 10.42824,-10.67945 15.72107,-15.94164 0.33174,-0.32981 0.77398,-0.52886 1.13946,-0.82128 0.37981,-0.30383 0.72915,-0.64354 1.09373,-0.96533 -4.6012,4.63404 -9.18786,9.28239 -13.80361,13.9021 -0.685,0.68561 1.29227,-1.44429 1.91886,-2.18313 2.05422,-2.80433 3.9614,-5.70903 5.94018,-8.56544 1.71633,-2.67981 3.54384,-5.29538 5.13351,-8.05259 1.33171,-2.18245 2.05364,-4.66332 2.98159,-7.03398 0.94595,-2.81679 2.16104,-5.52538 3.40188,-8.22214 0,0 16.75288,-13.15831 16.75288,-13.15831 l 0,0 c -1.5279,2.47988 -2.67238,5.26942 -3.55128,8.0284 -0.97097,2.44624 -1.87271,4.87714 -2.75714,7.34289 -1.78926,2.68406 -3.28585,5.56631 -5.22318,8.16247 -1.75661,2.96075 -3.87428,5.72045 -5.80841,8.57495 -0.88592,1.5353 -0.54318,1.17142 -1.72705,2.38066 -47.57062,48.58994 -7.88461,9.0716 -16.88162,16.96812 -0.34418,0.30209 -0.67118,0.62301 -1.00678,0.93449 4.60027,-4.69665 9.20054,-9.39332 13.80082,-14.08995 -10.96188,11.05265 -11.3803,15.69611 -22.66405,18.53223 -3.18397,0.82946 -6.40452,1.7189 -9.71321,1.81396 -3.12234,-0.10086 -6.0728,-0.84891 -8.97366,-2.00175 -3.03975,-1.0693 -6.18944,-1.8028 -9.1916,-2.9881 -4.00591,-1.54634 -8.09572,-3.07991 -11.51869,-5.73108 -2.56101,-1.87175 -4.76813,-4.13384 -6.00044,-7.1031 -0.83295,-2.92125 -1.67357,-5.84061 -2.4602,-8.77464 -0.95555,-3.66645 -1.85105,-7.36003 -2.26909,-11.13207 -0.17255,-3.79817 0.67369,-7.48766 1.41411,-11.19797 2.24876,-12.73435 6.31449,-12.83664 18.51081,-25.10638 2.65293,-2.57049 5.48335,-4.56845 9.23052,-5.18937 2.80971,-0.61223 5.68367,-1.15741 8.54342,-0.50747 2.50698,0.76782 4.60964,2.07148 6.53779,3.83969 2.03456,1.85152 4.34848,3.3697 5.65063,5.89476 1.29787,2.67725 2.17318,5.44964 2.89378,8.33655 0.80137,2.79339 1.62344,5.5836 2.27498,8.41635 0.60618,2.94499 1.05932,5.94193 0.30841,8.91248 -0.76449,2.52819 -1.43959,5.12065 -2.74354,7.43263 -0.88369,0.97518 -1.01638,1.65399 -1.48081,2.84974 -0.54398,1.40052 -0.4874,0.76434 -1.29243,2.01318 -0.24108,0.37396 -0.41763,0.78537 -0.62645,1.17807 -1.9178,2.70951 -2.39348,6.12088 -4.42237,8.79521 -1.71657,2.63314 -3.33878,5.2873 -4.92661,7.98468 -5.10745,8.7191 -15.31088,14.14331 -20.56943,22.36917 -5.83368,5.49944 -1.84014,1.76406 12.41464,-12.78191 0.38305,-0.39089 -0.75346,0.79392 -1.13703,1.18432 -6.09726,6.2055 -11.66283,12.67539 -18.27839,18.21223 -2.20773,1.56327 -4.6268,2.74609 -7.28517,3.34104 -2.79845,0.78651 -5.59611,1.57579 -8.38991,2.37849 -2.79005,0.79871 -5.57477,1.63208 -8.41387,2.24413 -2.73293,0.48239 -5.48303,0.77948 -7.70021,-1.22946 -1.79927,-2.3156 -2.17735,-5.20059 -3.00237,-7.9558 -0.85204,-3.04706 -1.6987,-6.09557 -2.53678,-9.14646 -0.97231,-3.51885 -1.96973,-7.0305 -3.00113,-10.5327 -0.87879,-3.15245 -1.74376,-6.30921 -2.68245,-9.44474 -0.78356,-2.78033 -1.5672,-5.56067 -2.34023,-8.34396 -0.79838,-2.8832 -1.58526,-5.76951 -2.37204,-8.6559 -0.79623,-2.85973 -1.53765,-5.77348 -2.87231,-8.44148 -1.48824,-2.11862 -2.86405,-1.26963 -4.98482,-0.38135 -1.27686,0.61984 -2.49514,1.25093 -3.61013,2.14043 -0.37139,0.29628 -1.39832,1.28416 -1.06873,0.94246 4.51813,-4.68462 9.09158,-9.31616 13.63737,-13.97423 -0.34348,0.3577 -0.68698,0.71538 -1.03048,1.07305 -1.76157,2.29843 -3.81543,4.31779 -5.70476,6.49887 -1.24749,2.00043 -2.60335,3.92103 -3.79906,5.92711 -0.92824,2.08272 -2.30612,3.94932 -3.37794,5.96031 -0.78426,2.01942 -1.69247,3.96508 -2.21302,6.06415 -1.07176,2.36496 -2.69129,4.48377 -4.08817,6.66848 -5.38459,9.3518 -8.9281,13.0181 -19.05481,22.26314 -0.70842,-0.50472 -1.47856,-0.93332 -2.1253,-1.51416 -0.15317,-0.13753 0.95539,-5.4632 1.01794,-6.09724 0.62731,-3.22659 0.5409,-6.58274 0.25024,-9.84288 -0.27575,-2.7356 -1.30002,-5.36503 -2.26526,-7.92921 -1.02507,-2.0151 -2.07069,-2.75884 -4.36217,-1.89451 -2.79748,1.02039 -5.6181,2.14996 -7.78762,4.2556 -0.47846,0.46074 -5.5659,5.38218 -3.00409,2.75029 28.57442,-29.35616 7.11074,-6.8669 -2.91245,2.78794 31.7142,-32.44856 13.83581,-15.63835 10.7577,-10.26832 -1.45964,1.72338 -2.62569,3.68022 -4.11185,5.38767 -0.84858,2.02538 -2.35101,3.70805 -2.92787,5.85543 -1.15409,2.19382 0.0828,-0.31803 -0.87016,2.20149 -0.66723,1.76396 -2.03942,3.17601 -1.95182,5.21035 -0.73256,3.04575 -1.27916,6.13178 -2.19652,9.13316 -1.01067,2.79221 -2.10466,5.53021 -2.40768,8.50627 -0.34238,2.88816 -0.83327,5.74265 -1.59817,8.54872 -0.30813,2.5372 -1.12642,5.00623 -1.81422,7.45881 -0.30018,1.51494 -0.20925,0.54626 -0.10315,2.11718 0.0172,0.24746 -0.0225,0.49986 0.0229,0.74388 0.0316,0.16787 0.32301,0.35063 0.20151,0.47134 -14.27424,14.18748 -21.972,18.0505 -15.13736,14.5763 0.66137,-2.28306 0.3444,-4.6016 0.59823,-6.93782 0.47431,-3.13763 0.20793,-6.3923 0.9398,-9.5189 0.49653,-3.25182 0.8943,-6.51613 1.35026,-9.77363 0.5263,-2.62384 0.99353,-5.2252 1.66652,-7.81864 1.02273,-3.18328 0.94796,-6.56836 1.23845,-9.87625 0.19114,-2.94344 0.20467,-5.86081 -0.23706,-8.78697 -0.76581,-2.77784 -1.5127,-5.56137 -2.33266,-8.32405 -0.60447,-1.92215 -1.09974,-4.29127 -2.72915,-5.61872 -4.97268,-0.5826 -27.73396,27.57929 9.56089,-11.89405 -1.80575,1.93489 -2.94015,4.30662 -4.37486,6.504 -6.96375,7.14277 -13.73811,15.51765 -22.11947,21.39314 -1.30322,0.95464 -1.44912,1.01623 -2.66055,2.08418 -0.39944,0.35216 -1.53934,1.4708 -1.16917,1.08829 28.67836,-29.63434 7.39225,-7.23773 -2.56542,2.55429 -5.93976,5.19092 -0.60709,0.57472 12.81844,-13.27327 0.3099,-0.31963 -0.67524,0.58388 -0.97779,0.91042 -0.60591,0.65392 -1.18197,1.34156 -1.67673,2.08221 -0.27728,0.41509 -0.48397,0.8727 -0.72593,1.30904 -1.69283,3.88985 -4.564,7.1461 -6.3497,11.01111 -2.10763,3.97665 -3.93071,8.1106 -5.80529,12.20187 -1.59342,3.7791 -3.22965,7.57195 -5.58631,10.95836 -5.29306,9.20811 -12.72407,17.05375 -21.16086,23.62691 -3.04833,2.21638 -6.25,3.76811 -9.9881,4.48363 -3.09601,0.85916 -6.21159,1.66021 -9.37181,2.25287 -2.76211,0.47565 -5.56202,0.59146 -8.30264,1.15915 -10.50688,3.20176 -14.15711,9.37121 7.01226,-11.46215 -2.2647,1.14615 -2.14793,2.09269 -0.48158,3.94974 1.63984,1.29741 3.68457,1.97116 5.68466,2.51854 2.98828,0.51357 5.98819,0.52557 8.93876,-0.27926 3.62279,-0.97454 7.24629,-1.94896 10.84137,-3.02112 3.21863,-1.02938 6.46729,-2.12648 8.96485,-4.49988 -4.46006,4.59527 -8.92043,9.19025 -13.38018,13.78582 -0.41954,0.4323 0.87059,-0.83636 1.25954,-1.29609 1.46249,-1.7286 2.62505,-3.85197 3.08771,-6.06248 0.25158,-3.00827 -0.90254,-5.76128 -1.67671,-8.63571 -1.05974,-3.6808 -2.14697,-7.36191 -3.58896,-10.91648 -1.50679,-3.60989 -3.3286,-7.06886 -4.83431,-10.67778 -1.33443,-2.57328 -2.8175,-5.11971 -4.68191,-7.34932 -2.25359,-2.45245 -3.93558,-5.2003 -5.71727,-8.00148 -1.49369,-2.18137 -2.38127,-4.76849 -4.26393,-6.64146 -0.55539,-0.2044 -0.46782,-0.31494 -0.37423,0.19936 4.81111,-4.92421 9.62224,-9.84842 14.43339,-14.77265 0.21517,-0.22265 -0.52774,0.34429 -0.72257,0.58475 -0.24489,0.30229 -0.43102,0.65389 -0.57368,1.01521 -0.15978,0.40467 -0.21736,0.84222 -0.32604,1.26333 -0.21534,2.81061 -0.97127,5.5105 -1.42457,8.2845 -0.67037,3.07065 -0.58544,6.30481 -1.55459,9.33528 -0.96241,2.94467 -1.43315,6.03244 -2.66629,8.88752 -1.12877,2.83889 -2.67551,5.50533 -3.88427,8.31623 -1.71109,2.84464 -0.12252,-0.0186 -1.49591,3.22401 -1.06086,2.50508 -2.78162,4.66084 -4.15598,6.9917 -2.23836,3.5268 -4.10433,7.27222 -7.01184,10.35415 -2.90205,4.19049 -5.84031,8.37601 -9.36677,12.07528 -1.60725,1.68404 -3.39297,3.27179 -4.87913,5.06426 -5.87216,7.08236 -9.68417,13.53348 -18.57047,19.55314 0,0 12.48323,-17.29167 12.48323,-17.29167 z"
       inkscape:connector-curvature="0" />
    <path
       style="fill:#ff6600;fill-opacity:1;fill-rule:nonzero;stroke:none"
       d="M 299.38021,375.75205 C 175.10338,416.12293 106.27038,545.99869 145.63737,665.83771 185.00437,785.6767 317.66391,850.09833 441.94071,809.72745 548.7411,775.03372 614.59959,674.22339 606.02387,570.50253 593.55017,640.13167 538.95668,703.16752 460.15275,728.7667 350.69884,764.32239 236.04948,714.20941 204.0638,616.84024 172.0781,519.47105 234.86841,411.7174 344.32233,376.16167 c 19.04525,-6.18676 38.23594,-9.80644 57.13342,-11.00821 -33.26025,-3.68118 -67.97728,-0.47811 -102.07554,10.59859 z"
       id="path5344"
       inkscape:connector-curvature="0" />
    <path
       sodipodi:type="arc"
       style="fill:#ff6600;fill-opacity:1;fill-rule:nonzero;stroke:none"
       id="path5355"
       sodipodi:cx="500"
       sodipodi:cy="902.36218"
       sodipodi:rx="50"
       sodipodi:ry="10"
       d="m 550,902.36218 c 0,5.52285 -22.38576,10 -50,10 -27.61424,0 -50,-4.47715 -50,-10 0,-5.52284 22.38576,-10 50,-10 27.61424,0 50,4.47716 50,10 z"
       transform="matrix(1.7670319,-0.59351596,0.22955516,0.67583871,-571.87645,287.90973)" />
  </g>
</svg>
